<svg width="4956" height="1098" viewBox="0 0 4956 1098" fill="none" xmlns="http://www.w3.org/2000/svg">
<g clip-path="url(#clip0_535_731)">
<path d="M904.181 520.725L750.169 563.621L765.557 652.796L1197.49 831.504L1215.63 769.14C1202.58 572.006 983.604 528.768 904.181 520.725Z" fill="#CB0E68"/>
<path d="M549.073 873.066L913.697 979.121C959.243 992.369 1008.23 986.436 1049.32 962.697L1176.65 889.131C1196.08 877.908 1217.48 870.547 1239.7 867.452L1323.5 855.772C1362.88 850.285 1399.2 831.476 1426.42 802.472L1474.64 751.097L1166.37 720.394L968.733 558.596L818.341 542.065L830.529 465.106L393.405 337.965C366.584 330.163 338.511 345.601 330.703 372.446C328.054 381.556 328.015 391.227 330.592 400.356L430.224 753.235C446.539 811.022 491.453 856.307 549.073 873.066Z" fill="#FF82AF"/>
<path fill-rule="evenodd" clip-rule="evenodd" d="M812.509 465.751L776.803 584.49L982.236 471.808L1246.24 486.439L1515.31 337.534L1533.15 234.411L812.509 465.751Z" fill="#FF82AF"/>
<path d="M1025.86 523.047L1058.31 478.955L990.953 475.712L1014.8 522.159C1017.01 526.471 1022.98 526.951 1025.86 523.047Z" fill="white"/>
<path d="M1220.12 541.992L1250.19 495.936L1191.76 489.975L1208.46 540.472C1210.17 545.663 1217.13 546.569 1220.12 541.992Z" fill="white"/>
<path d="M1357.7 688.2L1333.57 734.608L1381.16 739.629L1369.85 689.767C1368.51 683.839 1360.5 682.807 1357.7 688.2Z" fill="white"/>
<path d="M1094.06 375.368C1101.04 397.102 1089.08 420.376 1067.34 427.353C1045.61 434.33 1022.34 422.367 1015.36 400.634C1008.38 378.9 1020.34 355.625 1042.08 348.649C1063.81 341.672 1087.09 353.634 1094.06 375.368Z" fill="#FF82AF"/>
<path d="M1166.55 352.098C1173.53 373.832 1161.57 397.106 1139.83 404.083C1118.1 411.06 1094.82 399.097 1087.85 377.364C1080.87 355.63 1092.83 332.355 1114.57 325.379C1136.3 318.402 1159.58 330.364 1166.55 352.098Z" fill="#FF82AF"/>
<path fill-rule="evenodd" clip-rule="evenodd" d="M1025.79 380.844C1024.92 385.371 1025.13 390.176 1026.64 394.876C1031.43 409.789 1047.4 417.997 1062.31 413.21C1077.22 408.423 1085.43 392.453 1080.64 377.541C1080.33 376.552 1079.96 375.593 1079.55 374.665L1025.79 380.844Z" fill="#FFE500"/>
<path fill-rule="evenodd" clip-rule="evenodd" d="M1056.78 377.282C1053.88 381.302 1052.9 386.79 1054.61 392.102C1057.36 400.681 1066.08 405.552 1074.09 402.981C1082.1 400.411 1086.36 391.372 1083.6 382.793C1082.55 379.529 1080.64 376.801 1078.23 374.816L1056.78 377.282Z" fill="black"/>
<path fill-rule="evenodd" clip-rule="evenodd" d="M1097.99 365.157C1098.16 367.29 1098.58 369.438 1099.26 371.564C1104.05 386.476 1120.02 394.684 1134.93 389.897C1149.85 385.11 1158.05 369.14 1153.27 354.228C1151.68 349.289 1148.87 345.085 1145.27 341.846L1097.99 365.157Z" fill="#FFE500"/>
<path fill-rule="evenodd" clip-rule="evenodd" d="M1144.21 383.231C1152.78 380.477 1157.51 371.289 1154.75 362.71C1152 354.131 1142.81 349.409 1134.23 352.163C1125.65 354.917 1120.93 364.104 1123.69 372.684C1126.44 381.263 1135.63 385.985 1144.21 383.231Z" fill="black"/>
<path fill-rule="evenodd" clip-rule="evenodd" d="M913.332 979.014L548.267 872.831C490.578 856.052 445.64 810.609 429.354 752.583L367.185 531.077C406.684 513.938 452.103 509.95 496.597 522.892C594.966 551.504 652.767 652.379 629.484 751.383C633.822 752.155 638.161 753.166 642.487 754.424C656.568 758.52 669.365 764.902 680.597 773.051C721.637 699.726 808.854 661.559 892.655 685.934C974.578 709.762 1027.2 785.786 1025.13 867.564C1058.29 857.316 1094.67 856.328 1130.43 866.73C1147.47 871.685 1163.24 878.898 1177.51 887.95C1177.26 888.094 1177.01 888.238 1176.76 888.383L1049.17 962.391C1007.99 986.273 958.932 992.277 913.332 979.014ZM1350.24 849.081C1341.98 851.534 1333.52 853.382 1324.92 854.592L1239.92 866.55C1233.58 867.441 1227.31 868.679 1221.14 870.255C1219.6 860.865 1220.08 850.984 1222.91 841.228C1233.04 806.425 1269.33 786.382 1303.99 796.461C1329.06 803.753 1346.4 824.812 1350.24 849.081ZM1123.44 808.878C1117.87 828.02 1097.91 839.043 1078.85 833.5C1059.79 827.956 1048.85 807.945 1054.42 788.802C1059.99 769.66 1079.95 758.637 1099.01 764.18C1118.07 769.724 1129 789.735 1123.44 808.878Z" fill="#AF325F"/>
<path fill-rule="evenodd" clip-rule="evenodd" d="M1521.19 337.5C1522.92 340.661 1521.77 344.632 1518.61 346.37L1250.16 494.129L983.949 482.505L853.636 545.24L969.715 556.944L1165.77 713.736L1471.87 743.053C1475.46 743.397 1478.08 746.586 1477.74 750.177C1477.39 753.767 1474.2 756.4 1470.62 756.056L1160.66 726.369L964.572 569.555L806.201 553.587L981.257 469.312L1247.09 480.919L1512.33 334.924C1515.49 333.186 1519.46 334.339 1521.19 337.5Z" fill="black"/>
<path d="M826.773 338.406L831.065 477.622L696.885 470.828L592.611 261.328C584.163 244.357 599.956 225.454 618.16 230.749L779.772 277.755C806.925 285.653 825.902 310.141 826.773 338.406Z" fill="#FF82AF"/>
<path d="M645.325 933.196L688.409 884.153L649.55 850.015L528.151 938.158C523.267 941.705 525.402 949.412 531.415 949.94L590.592 955.134C611.288 956.951 631.613 948.804 645.325 933.196Z" fill="#AF325F"/>
<path d="M823.984 978.835L900.746 891.454L841.72 839.6L649.989 978.809C645.105 982.356 647.239 990.063 653.253 990.591L769.25 1000.77C789.947 1002.59 810.272 994.443 823.984 978.835Z" fill="#AF325F"/>
<path d="M386.11 187.513L387.875 363.316C387.91 366.727 387.443 370.125 386.49 373.4L385.061 378.314C380.117 395.312 363.22 405.898 345.795 402.913L178.635 374.281C170.047 372.81 168.731 361.01 176.781 357.667L257.116 324.304C266.86 320.257 274.245 312.003 277.194 301.864L287.59 266.121C291.529 252.579 286.919 238.002 275.916 229.207L114.527 100.198C107.091 94.253 113.244 82.3816 122.384 85.04L361.068 154.464C375.783 158.744 385.956 172.169 386.11 187.513Z" fill="#FF82AF"/>
<path d="M669.183 908.001L598.448 887.427L652.691 925.335L669.183 908.001Z" fill="#74213F"/>
<path d="M869.232 965.597L896.198 880.131L842.078 957.699L869.232 965.597Z" fill="#74213F"/>
<path fill-rule="evenodd" clip-rule="evenodd" d="M784.191 484.762C786.652 482.184 790.741 482.088 793.323 484.548C803.166 493.923 814.767 511.039 818.061 532.456C821.409 554.215 816.073 579.799 792.916 605.305C790.521 607.943 786.436 608.141 783.793 605.746C781.149 603.352 780.949 599.271 783.344 596.633C803.99 573.892 808.026 552.174 805.293 534.406C802.507 516.294 792.575 501.657 784.412 493.883C781.83 491.423 781.731 487.34 784.191 484.762Z" fill="black"/>
</g>
<g clip-path="url(#clip1_535_731)">
<path d="M2548.43 490.961L2406.76 565.051L2440.42 649.051L2900.13 733.692L2904.86 668.915C2850.96 478.844 2627.78 482.253 2548.43 490.961Z" fill="#CB0E68"/>
<path d="M2274.67 909.648L2653.39 937.279C2700.7 940.731 2747.37 924.707 2782.6 892.916L2891.78 794.397C2908.44 779.368 2927.84 767.702 2948.91 760.04L3028.44 731.129C3065.8 717.546 3097.4 691.572 3117.97 657.526L3154.4 597.22L2846.51 631.522L2619.46 514.527L2468.93 529.743L2464.79 451.936L2010.76 418.811C1982.9 416.778 1958.67 437.734 1956.64 465.618C1955.95 475.08 1957.93 484.546 1962.35 492.936L2133.43 817.256C2161.44 870.366 2214.82 905.282 2274.67 909.648Z" fill="#FF82AF"/>
<path fill-rule="evenodd" clip-rule="evenodd" d="M2465.61 459.313L2419.17 574.279L2634.07 480.901L2895.62 519.669L3177.21 396.053L3204.43 295L2465.61 459.313Z" fill="#FF82AF"/>
<path d="M2672.81 535.923L2709.17 494.99L2642.39 485.588L2661.88 534.025C2663.69 538.521 2669.59 539.547 2672.81 535.923Z" fill="white"/>
<path d="M2864.52 572.593L2898.69 529.488L2841.05 518.196L2853.04 570.011C2854.28 575.337 2861.12 576.877 2864.52 572.593Z" fill="white"/>
<path d="M3026.91 560.11L3013 610.531L3060.59 605.51L3039.12 559.106C3036.57 553.589 3028.53 554.251 3026.91 560.11Z" fill="white"/>
<path d="M2754.27 395.117C2759.22 417.399 2745.18 439.479 2722.9 444.434C2700.61 449.39 2678.53 435.344 2673.58 413.062C2668.62 390.781 2682.67 368.701 2704.95 363.745C2727.23 358.79 2749.31 372.835 2754.27 395.117Z" fill="#FF82AF"/>
<path d="M2828.58 378.589C2833.54 400.871 2819.49 422.951 2797.21 427.906C2774.93 432.862 2752.85 418.816 2747.9 396.534C2742.94 374.253 2756.99 352.173 2779.27 347.217C2801.55 342.262 2823.63 356.308 2828.58 378.589Z" fill="#FF82AF"/>
<path fill-rule="evenodd" clip-rule="evenodd" d="M2685.78 394.312C2684.49 398.74 2684.27 403.545 2685.34 408.364C2688.74 423.652 2703.89 433.289 2719.18 429.889C2734.47 426.489 2744.11 411.339 2740.71 396.051C2740.48 395.037 2740.2 394.048 2739.88 393.086L2685.78 394.312Z" fill="#FFE500"/>
<path fill-rule="evenodd" clip-rule="evenodd" d="M2716.97 393.606C2713.71 397.343 2712.23 402.718 2713.44 408.163C2715.4 416.959 2723.64 422.609 2731.85 420.783C2740.06 418.958 2745.13 410.347 2743.17 401.552C2742.43 398.205 2740.77 395.314 2738.56 393.116L2716.97 393.606Z" fill="black"/>
<path fill-rule="evenodd" clip-rule="evenodd" d="M2759.12 385.309C2759.09 387.449 2759.31 389.626 2759.8 391.805C2763.2 407.094 2778.35 416.731 2793.63 413.331C2808.92 409.931 2818.56 394.781 2815.16 379.492C2814.03 374.429 2811.62 369.985 2808.34 366.43L2759.12 385.309Z" fill="#FFE500"/>
<path fill-rule="evenodd" clip-rule="evenodd" d="M2803.48 407.543C2812.27 405.587 2817.82 396.871 2815.86 388.075C2813.91 379.28 2805.19 373.736 2796.4 375.692C2787.6 377.648 2782.06 386.364 2784.01 395.159C2785.97 403.954 2794.68 409.499 2803.48 407.543Z" fill="black"/>
<path fill-rule="evenodd" clip-rule="evenodd" d="M2653.01 937.25L2273.83 909.586C2213.91 905.214 2160.48 870.149 2132.44 816.799L2025.42 613.143C2060.47 588.139 2104.06 574.761 2150.27 578.133C2252.45 585.587 2330.03 672.18 2327.91 773.863C2332.32 773.713 2336.77 773.797 2341.27 774.124C2355.89 775.192 2369.74 778.762 2382.42 784.388C2407.26 704.114 2484.59 648.587 2571.63 654.937C2656.73 661.145 2724.05 724.515 2739.1 804.923C2769.38 787.983 2804.76 779.425 2841.9 782.135C2859.6 783.426 2876.52 787.189 2892.37 793.064C2892.16 793.256 2891.94 793.45 2891.73 793.643L2782.39 892.648C2747.11 924.596 2700.38 940.706 2653.01 937.25ZM3053.19 719.006C3045.63 723.127 3037.74 726.7 3029.57 729.68L2948.94 759.112C2942.93 761.305 2937.06 763.824 2931.35 766.653C2927.88 757.792 2926.29 748.029 2927.03 737.896C2929.66 701.746 2960.98 674.569 2996.98 677.195C3023.01 679.095 3044.37 696.073 3053.19 719.006ZM2822.99 727.015C2821.54 746.898 2804.32 761.845 2784.52 760.401C2764.72 758.956 2749.85 741.668 2751.3 721.785C2752.75 701.903 2769.98 686.956 2789.77 688.4C2809.57 689.844 2824.44 707.133 2822.99 727.015Z" fill="#AF325F"/>
<path d="M2844.54 625.134L3150.02 589.93C3153.6 589.518 3156.83 592.089 3157.24 595.673C3157.65 599.257 3155.08 602.496 3151.51 602.909L2842.17 638.557L2617.68 526.113L2459.47 543.545L2459.47 531L2504.11 525.483L2620.08 512.706L2844.54 625.134Z" fill="black"/>
<path d="M3180.35 398.292C3181.75 401.613 3180.2 405.446 3176.88 406.851L2894.72 526.353L2631.09 487.537L2510.5 534.5L2468 534.5L2629.76 474.138L2893.01 512.898L3171.81 394.823C3175.13 393.417 3178.95 394.97 3180.35 398.292Z" fill="black"/>
<path d="M2434.68 328.808L2467.93 464.065L2335.29 485.42L2189.59 302.292C2177.79 287.457 2189.29 265.675 2208.2 267.054L2376.06 279.301C2404.26 281.359 2427.93 301.347 2434.68 328.808Z" fill="#FF82AF"/>
<path d="M2381.35 948.367L2413.25 891.413L2368.12 866.136L2267.79 977.672C2263.75 982.16 2267.45 989.252 2273.44 988.513L2332.4 981.244C2353.02 978.702 2371.19 966.494 2381.35 948.367Z" fill="#AF325F"/>
<path d="M2565.6 955.72L2622.43 854.244L2553.89 815.849L2395.43 992.004C2391.39 996.491 2395.09 1003.58 2401.08 1002.84L2516.65 988.597C2537.27 986.055 2555.44 973.846 2565.6 955.72Z" fill="#AF325F"/>
<path d="M1972.23 273.194L2010.64 444.759C2011.39 448.087 2011.64 451.507 2011.39 454.91L2011.02 460.013C2009.73 477.669 1995.42 491.547 1977.75 492.264L1808.3 499.145C1799.59 499.499 1795.84 488.233 1803.02 483.284L1874.62 433.891C1883.31 427.9 1888.81 418.287 1889.58 407.756L1892.28 370.63C1893.31 356.564 1885.76 343.27 1873.16 336.964L1688.41 244.474C1679.89 240.212 1683.43 227.318 1692.93 228.01L1940.84 246.098C1956.13 247.213 1968.88 258.22 1972.23 273.194Z" fill="#FF82AF"/>
<path d="M2399.42 918.749L2325.95 913.389L2386.91 939.143L2399.42 918.749Z" fill="#74213F"/>
<path d="M2607.09 933.331L2615.62 844.12L2578.88 931.274L2607.09 933.331Z" fill="#74213F"/>
<path fill-rule="evenodd" clip-rule="evenodd" d="M2423.58 480.828C2425.45 477.794 2429.43 476.847 2432.46 478.714C2444.05 485.828 2458.96 500.147 2466.66 520.404C2474.47 540.986 2474.59 567.12 2457.27 596.896C2455.47 599.977 2451.52 601.022 2448.44 599.232C2445.35 597.442 2444.3 593.494 2446.09 590.413C2461.54 563.865 2460.96 541.783 2454.57 524.976C2448.07 507.844 2435.3 495.602 2425.7 489.702C2422.66 487.836 2421.71 483.863 2423.58 480.828Z" fill="black"/>
</g>
<path d="M4200.85 487.883L4065.19 572.474L4105.1 653.688L4569.9 703.323L4569.71 638.375C4501.59 452.924 4279.31 473.2 4200.85 487.883Z" fill="#CB0E68"/>
<path d="M3959.53 926.073L4339.26 924.986C4386.69 924.85 4432.02 905.344 4464.74 870.979L4566.16 764.487C4581.63 748.242 4600.09 735.142 4620.53 725.907L4697.64 691.065C4733.87 674.696 4763.41 646.407 4781.35 610.903L4813.12 548.015L4508.71 605.501L4273.46 506.01L4124.51 532.566L4114.5 455.294L3659.26 456.597C3631.33 456.677 3608.75 479.406 3608.83 507.363C3608.86 516.851 3611.55 526.14 3616.6 534.172L3811.71 844.626C3843.66 895.465 3899.52 926.245 3959.53 926.073Z" fill="#FF82AF"/>
<path fill-rule="evenodd" clip-rule="evenodd" d="M4108.13 446.774L4035.86 547.528L4266.73 507.52L4511.73 606.937L4814.55 553.291L4864.85 461.52L4108.13 446.774Z" fill="#FF82AF"/>
<path d="M4291.39 570.135L4336.38 538.942L4273.71 514.042L4281.21 565.71C4281.91 570.506 4287.41 572.897 4291.39 570.135Z" fill="white"/>
<path d="M4469.02 651.027L4512.4 617.206L4459.06 592.627L4458.48 645.809C4458.42 651.276 4464.71 654.388 4469.02 651.027Z" fill="white"/>
<path d="M4683.19 520.652L4673.13 571.981L4720.2 563.375L4695.29 518.727C4692.33 513.419 4684.36 514.687 4683.19 520.652Z" fill="white"/>
<path d="M4404.22 452.165C4403.86 474.988 4385.06 493.197 4362.24 492.836C4339.42 492.474 4321.21 473.68 4321.57 450.857C4321.93 428.033 4340.72 409.824 4363.55 410.186C4386.37 410.547 4404.58 429.341 4404.22 452.165Z" fill="#FF82AF"/>
<path d="M4480.34 453.37C4479.98 476.193 4461.19 494.402 4438.36 494.041C4415.54 493.679 4397.33 474.885 4397.69 452.062C4398.05 429.238 4416.85 411.029 4439.67 411.391C4462.49 411.752 4480.7 430.546 4480.34 453.37Z" fill="#FF82AF"/>
<path fill-rule="evenodd" clip-rule="evenodd" d="M4337.8 435.458C4335.52 439.465 4334.18 444.086 4334.1 449.022C4333.85 464.682 4346.35 477.577 4362.01 477.825C4377.67 478.073 4390.56 465.579 4390.81 449.919C4390.83 448.881 4390.79 447.855 4390.7 446.844L4337.8 435.458Z" fill="#FFE500"/>
<path fill-rule="evenodd" clip-rule="evenodd" d="M4368.29 442.022C4364.26 444.9 4361.57 449.783 4361.48 455.361C4361.34 464.37 4368.04 471.781 4376.45 471.914C4384.85 472.048 4391.79 464.852 4391.93 455.843C4391.98 452.415 4391.05 449.218 4389.4 446.565L4368.29 442.022Z" fill="black"/>
<path fill-rule="evenodd" clip-rule="evenodd" d="M4411.21 443.752C4410.69 445.828 4410.4 447.996 4410.37 450.229C4410.12 465.889 4422.61 478.784 4438.27 479.032C4453.93 479.28 4466.83 466.786 4467.07 451.127C4467.16 445.94 4465.84 441.056 4463.48 436.835L4411.21 443.752Z" fill="#FFE500"/>
<path fill-rule="evenodd" clip-rule="evenodd" d="M4449.19 475.692C4458.2 475.835 4465.62 468.647 4465.76 459.638C4465.91 450.629 4458.72 443.21 4449.71 443.067C4440.7 442.924 4433.28 450.112 4433.14 459.121C4433 468.13 4440.18 475.549 4449.19 475.692Z" fill="black"/>
<path fill-rule="evenodd" clip-rule="evenodd" d="M4338.88 924.986L3958.69 926.074C3898.61 926.246 3842.68 895.322 3810.69 844.246L3688.57 649.265C3721.63 621.682 3764.08 605.047 3810.42 604.914C3912.87 604.621 3996.77 685.099 4002.36 786.651C4006.73 786.168 4011.18 785.914 4015.69 785.902C4030.35 785.86 4044.43 788.373 4057.5 793.024C4076.2 711.101 4149.11 649.885 4236.38 649.635C4321.7 649.391 4393.63 707.488 4414.71 786.529C4443.63 767.347 4478.25 756.138 4515.5 756.031C4533.24 755.981 4550.4 758.453 4566.65 763.112C4566.45 763.321 4566.25 763.53 4566.05 763.739L4464.51 870.728C4431.75 905.253 4386.37 924.85 4338.88 924.986ZM4721.4 677.106C4714.18 681.787 4706.58 685.946 4698.66 689.535L4620.49 724.98C4614.66 727.621 4609 730.577 4603.52 733.83C4599.39 725.257 4597.06 715.642 4597.03 705.482C4596.93 669.236 4626.1 639.769 4662.19 639.666C4688.3 639.591 4710.88 654.905 4721.4 677.106ZM4492.47 702.5C4492.53 722.435 4476.48 738.642 4456.64 738.699C4436.79 738.755 4420.65 722.641 4420.59 702.706C4420.54 682.77 4436.58 666.564 4456.43 666.507C4476.28 666.45 4492.41 682.565 4492.47 702.5Z" fill="#AF325F"/>
<path d="M4506.26 599.28L4808.2 541.078C4811.73 540.396 4815.15 542.715 4815.83 546.258C4816.51 549.8 4814.2 553.225 4810.66 553.906L4504.91 612.844L4272.56 517.698L4116.11 547.044L4112.14 533.528L4159.27 525.658L4273.94 504.148L4506.26 599.28Z" fill="black"/>
<path d="M4075.16 334.796L4118.54 467.151L3987.89 498.476L3828.77 326.89C3815.88 312.99 3825.7 290.4 3844.65 290.346L4012.96 289.864C4041.24 289.783 4066.35 307.924 4075.16 334.796Z" fill="#FF82AF"/>
<path d="M4068.83 956.615L4096.33 897.412L4049.42 875.62L3957.81 994.423C3954.13 999.203 3958.35 1006 3964.27 1004.81L4022.51 993.099C4042.88 989.005 4060.08 975.457 4068.83 956.615Z" fill="#AF325F"/>
<path d="M4253.11 950.013L4302.11 844.531L4230.86 811.429L4086.17 999.062C4082.48 1003.84 4086.71 1010.63 4092.62 1009.44L4206.78 986.498C4227.15 982.404 4244.36 968.856 4253.11 950.013Z" fill="#AF325F"/>
<path d="M3609.83 314.311L3661.11 482.48C3662.1 485.742 3662.61 489.134 3662.62 492.545L3662.64 497.662C3662.69 515.365 3649.46 530.286 3631.9 532.337L3463.45 552.012C3454.8 553.023 3450.21 542.073 3456.99 536.595L3524.65 481.929C3532.86 475.299 3537.62 465.297 3537.59 454.738L3537.48 417.514C3537.44 403.411 3528.91 390.726 3515.87 385.39L3324.65 307.136C3315.84 303.53 3318.39 290.405 3327.91 290.378L3576.48 289.666C3591.81 289.622 3605.36 299.633 3609.83 314.311Z" fill="#FF82AF"/>
<path d="M4084.61 925.715L4010.95 925.926L4073.68 946.996L4084.61 925.715Z" fill="#74213F"/>
<path d="M4292.79 924.552L4294.55 834.95L4264.51 924.633L4292.79 924.552Z" fill="#74213F"/>
<path fill-rule="evenodd" clip-rule="evenodd" d="M4075.59 487.22C4077.22 484.053 4081.12 482.808 4084.29 484.44C4096.37 490.658 4112.33 503.808 4121.53 523.426C4130.88 543.357 4132.98 569.408 4117.95 600.409C4116.4 603.616 4112.54 604.958 4109.33 603.406C4106.11 601.854 4104.77 597.996 4106.32 594.789C4119.72 567.149 4117.47 545.174 4109.83 528.898C4102.05 512.307 4088.39 501.065 4078.37 495.909C4075.2 494.278 4073.95 490.388 4075.59 487.22Z" fill="black"/>
<defs>
<clipPath id="clip0_535_731">
<rect width="1652" height="1098" fill="white"/>
</clipPath>
<clipPath id="clip1_535_731">
<rect width="1652" height="1098" fill="white" transform="translate(1652)"/>
</clipPath>
</defs>
</svg>
