<svg width="1761" height="1175" viewBox="0 0 1761 1175" fill="none" xmlns="http://www.w3.org/2000/svg">
<g clip-path="url(#clip0_44_4)">
<rect width="1761" height="1175" fill="url(#paint0_linear_44_4)"/>
<g style="mix-blend-mode:overlay">
<path d="M1589.86 369.331L1753.04 504.5L1920.92 641.939C1927.72 647.513 1937.99 643.235 1938.83 634.476L2003.21 -37.9516C2003.83 -44.4114 1998.75 -50 1992.26 -50H-67C-73.0752 -50 -78 -45.0751 -78 -39V782.196C-78 795.203 -59.4011 797.442 -56.3142 784.807L59.5504 310.553C62.3839 298.955 78.7429 299.567 80.552 311.368C102.67 455.656 136.737 717.701 153.091 845.268C154.701 857.826 172.806 857.99 174.918 845.506L226.732 539.297C243.908 437.792 331.827 363.5 434.775 363.5H735.194C801.208 363.5 863.417 394.395 903.309 446.992L962.514 525.052C966.891 530.823 975.554 530.862 979.983 525.13L1078.16 398.076C1083.89 390.664 1095.67 393.346 1097.62 402.508L1160.31 696.49C1162.72 707.802 1178.72 708.206 1181.7 697.03L1239.23 481.207C1255.15 421.457 1300.48 373.973 1359.43 355.288L1419.7 336.181C1478.37 317.585 1542.47 330.072 1589.86 369.331Z" fill="#1EAAB3"/>
</g>
<g style="mix-blend-mode:overlay">
<path d="M-754.473 590.362L-898.96 1058.66C-899.636 1060.86 -899.61 1063.21 -898.885 1065.38L-876.871 1131.48C-875.374 1135.97 -871.17 1139 -866.435 1139L3342 1139C3348.08 1139 3353 1134.08 3353 1128V945.71C3353 942.861 3351.9 940.123 3349.92 938.073L3198.55 781.158C3193.79 776.227 3185.73 776.798 3181.72 782.35L3063.49 945.877C3057.73 953.84 3045.22 950.833 3043.71 941.123L2981.39 540.762C2979.62 529.429 2963.86 528.022 2960.12 538.864L2814.68 960.078C2811.21 970.139 2796.9 969.893 2793.77 959.72L2700.05 654.764C2697.05 645.024 2683.57 644.237 2679.46 653.563L2553.12 940.522C2549.01 949.846 2535.74 949.043 2533.02 939.224C2510.84 859.063 2476.46 712.292 2460.12 641.546C2457.58 630.557 2442.1 630.129 2438.81 640.917L2402.47 760.101C2375.39 848.891 2293.47 909.556 2200.64 909.556H1842.33C1797.53 909.556 1753.9 895.299 1717.74 868.848L1648.61 818.269C1644.77 815.46 1639.56 815.437 1635.69 818.211L1532.27 892.481C1526.41 896.684 1518.17 894.218 1515.58 887.491L1452.63 723.681C1449.17 714.677 1436.63 714.169 1432.45 722.863L1388.82 813.683C1363.56 866.275 1314.49 903.463 1257.03 913.57L1155.17 931.485C1118.95 937.856 1081.64 933.041 1048.23 917.681L905.143 851.915C875.802 838.429 843.388 833.038 811.262 836.301L285.082 889.744C282.594 889.997 280.266 891.09 278.483 892.843L78.8925 1089.01C72.9181 1094.88 62.8345 1092.19 60.5857 1084.12L-51.0684 683.488C-53.7944 673.707 -67.1867 672.527 -71.5811 681.681L-219.107 988.988C-223.409 997.95 -236.449 997.061 -239.494 987.598L-337.013 684.615C-340.533 673.679 -356.351 674.78 -358.321 686.098L-410.278 984.582C-412.028 994.641 -425.346 997.095 -430.567 988.321L-564.081 763.97C-569.102 755.532 -581.822 757.401 -584.205 766.926L-638.715 984.868C-641.582 996.332 -658.042 995.826 -660.201 984.208L-733.147 591.595C-735.247 580.296 -751.085 579.38 -754.473 590.362Z" fill="#0E949C"/>
</g>
<path d="M-649.847 310.997L-737.655 -71.6964L-759.265 -227.489C-760.182 -234.101 -755.045 -240 -748.369 -240H1964C1970.08 -240 1975 -235.075 1975 -229V6.74016C1975 8.44991 1974.6 10.1361 1973.84 11.6649L1887.56 183.979C1883.51 192.077 1871.95 192.08 1867.89 183.984L1796.87 42.2997C1791.97 32.5288 1777.37 35.1069 1776.11 45.964L1740.46 353.968C1739.05 366.085 1721.91 367.253 1718.87 355.439L1635.9 32.3235C1633.04 21.1522 1617.1 21.3646 1614.53 32.6084L1561.83 263.16C1559.35 274.033 1544.13 274.731 1540.66 264.133L1469.57 47.0189C1466.1 36.4211 1451.1 37.1027 1448.8 48.014C1435.6 110.615 1417.36 203.778 1406.82 258.103C1404.64 269.378 1388.97 270.191 1385.77 259.161C1378.75 234.965 1369.69 203.022 1360.97 170.188C1347.52 119.531 1302.18 82.8633 1249.77 82.8633H1017.54C985.714 82.8633 955.419 96.5235 934.349 120.375L874.195 188.47C868.426 195.001 857.714 192.549 855.36 184.158L818.504 52.7842C815.392 41.6918 799.485 42.2392 797.143 53.5193L756.266 250.38C753.844 262.045 737.194 262.072 734.733 250.415L697.974 76.2734C697.094 72.106 693.888 68.821 689.743 67.8407L590.823 44.4449C557.672 36.6043 522.803 46.0029 498.083 69.4416L421.057 142.476C397.932 164.402 365.816 174.129 334.412 168.718L48.409 119.435C18.5541 114.29 -7.41479 96.0161 -22.3372 69.6513L-92.8205 -54.8779C-102.54 -72.0494 -128.43 -67.5526 -131.79 -48.1094L-214.455 430.332C-216.568 442.564 -234.161 442.475 -236.152 430.223L-300.475 34.2898C-302.465 22.0411 -320.052 21.9478 -322.171 34.1747L-356.877 234.355C-358.969 246.424 -376.251 246.553 -378.524 234.517L-421.989 4.36545C-423.993 -6.24371 -438.488 -7.91801 -442.857 1.955L-517.727 171.127C-522.103 181.014 -536.623 179.317 -538.6 168.687L-566.403 19.2109C-568.686 6.93948 -586.406 7.35248 -588.114 19.7169L-628.229 310.042C-629.902 322.148 -647.114 322.908 -649.847 310.997Z" fill="#87F1FF"/>
<path d="M1897 843.531L1855.1 1206.98L1855.1 1427C1855.1 1433.08 1850.17 1438 1844.1 1438L-1340 1438C-1346.08 1438 -1351 1433.08 -1351 1427L-1351 1143.66C-1351 1141.42 -1350.31 1139.22 -1349.03 1137.38L-1248.58 993.112C-1244.21 986.828 -1234.91 986.826 -1230.53 993.108L-1142.09 1119.99C-1136.65 1127.79 -1124.53 1125.47 -1122.35 1116.21L-1035.11 744.508C-1033.13 736.069 -1021.01 736.367 -1019.45 744.894L-950.985 1118.5C-949.349 1127.43 -938.212 1130.65 -932.068 1123.96L-841.139 1025.06C-825.769 1008.35 -799.739 1007.31 -783.084 1022.74L-669.074 1128.43C-663.161 1133.91 -653.521 1131.38 -650.711 1123.83C-643.789 1105.21 -635.874 1088.44 -628.463 1074.44C-613.492 1046.15 -583.106 1031.05 -551.103 1031.05L-524.891 1031.05L-332.843 1031.05L-316.5 1031.05C-292.996 1031.05 -270.228 1039.25 -252.118 1054.23L-163.671 1127.4C-156.975 1132.94 -146.8 1128.89 -145.741 1120.27L-77.6007 564.918C-76.0271 552.093 -57.4604 552.013 -55.7763 564.824L8.32858 1052.47C12.1704 1081.69 36.3601 1103.99 65.8005 1105.44L360.055 1119.97C382.029 1121.05 403.756 1114.93 421.933 1102.54L538.162 1023.29C558.458 1009.45 583.102 1003.49 607.48 1006.51L973.951 1051.92C996.363 1054.69 1017.2 1064.9 1033.13 1080.91L1134.23 1182.52C1142.58 1190.91 1156.22 1190.75 1164.36 1182.16L1294.58 1044.77C1327.43 1010.12 1382.99 1011.26 1414.39 1047.23L1510.46 1157.27C1516.26 1163.93 1527.15 1161.37 1529.38 1152.83L1586.6 934.201C1589.54 922.986 1605.58 923.354 1608 934.691L1653.09 1146.07C1655.16 1155.78 1668.02 1157.99 1673.22 1149.54L1763.92 1002.16C1769 993.905 1781.51 995.786 1783.94 1005.17L1818.75 1139.78C1821.69 1151.14 1837.99 1150.62 1840.21 1139.1L1897 843.531Z" fill="#87F1FF"/>
<g style="mix-blend-mode:screen" opacity="0.3" filter="url(#filter0_f_44_4)">
<circle cx="1156.84" cy="549.843" r="364.292" transform="rotate(-8.63227 1156.84 549.843)" fill="#FFE600"/>
</g>
<g style="mix-blend-mode:screen" opacity="0.75" filter="url(#filter1_f_44_4)">
<circle cx="1149.09" cy="501.199" r="145.762" transform="rotate(-8.63227 1149.09 501.199)" fill="#FFE600"/>
</g>
<ellipse cx="1042.55" cy="715.915" rx="9.03294" ry="34.1961" transform="rotate(-13.1518 1042.55 715.915)" fill="white"/>
<path d="M1095.83 605.356L1116.57 635.961C1122.47 644.669 1117.8 656.588 1107.56 658.982L1064.62 669.015C1058.32 670.488 1051.78 667.753 1048.41 662.232L1029.45 631.212C1024.12 622.491 1028.88 611.108 1038.83 608.782L1080 599.164C1086.05 597.75 1092.34 600.213 1095.83 605.356Z" fill="#FFB800"/>
<path fill-rule="evenodd" clip-rule="evenodd" d="M1109.7 625.83L1116.57 635.961C1122.47 644.669 1117.8 656.588 1107.56 658.982L1085.49 664.139L1109.7 625.83Z" fill="#C56A00"/>
<path d="M1065.98 763.4L1060.95 800.027C1059.52 810.448 1068.98 819.068 1079.22 816.674L1122.16 806.641C1128.46 805.169 1133.11 799.821 1133.69 793.376L1136.94 757.165C1137.86 746.985 1128.54 738.891 1118.59 741.217L1077.42 750.835C1071.37 752.249 1066.82 757.245 1065.98 763.4Z" fill="#FFB800"/>
<path fill-rule="evenodd" clip-rule="evenodd" d="M1135.42 769.935L1137.09 757.812C1138.52 747.39 1129.06 738.771 1118.81 741.164L1096.74 746.321L1135.42 769.935Z" fill="#C56A00"/>
<path d="M1154.55 508.986C1176.08 499.051 1222.37 493.004 1235.29 548.3" stroke="#FFE500" stroke-width="6"/>
<path d="M1406.84 635.926L1403.1 619.94C1391.93 572.119 1344.1 542.411 1296.28 553.585L1278.23 531.833C1268.55 520.172 1253.11 514.984 1238.35 518.432L1193.9 528.818C1183.14 531.332 1176.46 542.089 1178.97 552.844L1185.21 579.538L1164.48 584.382C1140.7 589.939 1121.53 607.487 1113.91 630.686L1096.99 682.146C1091.26 699.562 1095.74 718.717 1108.59 731.793L1146.56 770.429C1163.68 787.846 1188.63 795.084 1212.41 789.528L1328.23 762.466C1384.88 749.229 1420.07 692.575 1406.84 635.926Z" fill="#FFE600"/>
<path fill-rule="evenodd" clip-rule="evenodd" d="M1403.22 620.448L1406.96 636.434C1413.33 663.714 1408.47 690.996 1395.4 713.429C1376.39 697.698 1361.32 673.667 1354.59 644.864C1347.72 615.445 1350.84 586.636 1361.45 563.879C1381.81 575.765 1397.43 595.677 1403.22 620.448Z" fill="#FFB800"/>
<g style="mix-blend-mode:multiply" opacity="0.16">
<path fill-rule="evenodd" clip-rule="evenodd" d="M1409.62 658.638L1106.45 729.475C1107.14 730.267 1107.85 731.04 1108.59 731.793L1146.56 770.429C1163.68 787.846 1188.63 795.084 1212.41 789.528L1328.23 762.466C1377.28 751.006 1410.24 707.005 1409.62 658.638Z" fill="#FF8A00"/>
</g>
<circle r="33.4222" transform="matrix(-0.973771 0.227531 0.227531 0.973771 1290.07 629.589)" fill="white" stroke="#974800" stroke-width="8"/>
<circle r="33.4222" transform="matrix(-0.973771 0.227531 0.227531 0.973771 1190.8 652.785)" fill="white" stroke="#974800" stroke-width="8"/>
<g filter="url(#filter2_d_44_4)">
<circle cx="1146.69" cy="509.371" r="14.1946" transform="rotate(-13.1518 1146.69 509.371)" fill="white"/>
</g>
<rect x="1061.71" y="701.499" width="63.2306" height="20.6467" rx="10.3234" transform="rotate(-13.1518 1061.71 701.499)" fill="#FFB800"/>
<path d="M1210.02 573.42C1237.41 566.8 1296.1 553.308 1296.1 553.308L1288.72 544.43L1210.02 573.42Z" fill="#FFD400"/>
<path d="M681.463 542.52L588.86 531.861L577.243 583.526L770.178 775.306L793.883 745.532C830.869 635.932 722.482 564.348 681.463 542.52Z" fill="#CB0E68"/>
<path fill-rule="evenodd" clip-rule="evenodd" d="M677.598 810.339L448.605 734.632C421.826 725.779 401.688 703.48 395.602 675.941L347.165 456.791C345.972 451.394 346.32 445.77 348.169 440.561C353.618 425.211 370.478 417.185 385.828 422.633L635.989 511.434L626.304 555.784L633.266 565.01L709.479 609.028L777.048 741.734L934.385 830.479L889.633 849.536C872.823 856.695 854.068 857.883 836.489 852.904L762.676 831.999L687.82 812.776C684.38 812.261 680.961 811.45 677.598 810.339Z" fill="#FF82AF"/>
<path fill-rule="evenodd" clip-rule="evenodd" d="M625.643 511.319L600.838 579.241L724.255 520.588L877.462 538.038L1039.16 460.449L1053.03 401.014L625.643 511.319Z" fill="#FF82AF"/>
<path d="M747.088 552.897L768.304 527.323L729.199 523.156L742.035 552.195C742.936 554.233 745.666 554.612 747.088 552.897Z" fill="white"/>
<path d="M859.381 570.842L879.444 543.7L845.628 538.253L854.07 569.833C854.719 572.261 857.887 572.863 859.381 570.842Z" fill="white"/>
<path d="M916.619 776.192L890.895 796.384L914.961 810.516L921.41 779.156C921.973 776.419 918.817 774.467 916.619 776.192Z" fill="white"/>
<path fill-rule="evenodd" clip-rule="evenodd" d="M448.605 734.632L677.598 810.339C680.961 811.45 684.38 812.261 687.82 812.776L762.677 831.999L836.489 852.904C846.907 855.855 857.737 856.64 868.331 855.299C867.751 811.729 840.441 771.123 796.975 755.694C776.534 748.438 755.356 747.756 735.751 752.549C739.647 705.259 711.572 659.417 664.744 642.794C616.844 625.791 564.895 644.89 538.625 685.942C532.366 680.836 525.139 676.699 517.09 673.842C514.617 672.964 512.129 672.229 509.633 671.632C526.43 615.096 496.163 554.683 439.935 534.724C414.503 525.696 387.974 526.441 364.452 535.006L395.602 675.941C401.688 703.48 421.827 725.779 448.605 734.632ZM874.408 796.65L934.385 830.479L915.312 838.601C910.12 839.021 904.758 838.377 899.532 836.521C882.608 830.514 872.583 813.756 874.408 796.65ZM754.97 698.372L773.935 735.62C768.802 738.604 762.439 739.396 756.405 737.254C745.511 733.387 739.814 721.42 743.681 710.526C745.689 704.87 749.88 700.616 754.97 698.372Z" fill="#AF325F"/>
<path d="M935.823 827.193L778.638 739.089L708.367 607.126L632.628 560.721L724.035 523.169L878.606 539L1038.97 462.658" stroke="black" stroke-width="9" stroke-linecap="round"/>
<path d="M638.417 431.807L636.046 518.858L558.156 510.363L502.127 379.226C498.703 371.212 506.455 362.958 514.668 365.873L618.464 402.718C630.715 407.067 638.771 418.812 638.417 431.807Z" fill="#FF82AF"/>
<path d="M509.63 780.714L539.239 750.715L517.77 729.525L442.295 777.898C439.958 779.395 440.733 782.989 443.478 783.392L483.925 789.323C493.375 790.709 502.92 787.512 509.63 780.714Z" fill="#AF325F"/>
<path d="M612.1 813.329L662.615 762.149L630.004 729.962L511.853 805.686C509.516 807.184 510.291 810.778 513.036 811.18L586.396 821.938C595.846 823.324 605.391 820.127 612.1 813.329Z" fill="#AF325F"/>
<path d="M387.157 331.519L382.094 437.752C382.019 439.318 381.715 440.865 381.19 442.343L378.696 449.368C375.974 457.036 367.931 461.44 360.004 459.602L256.181 435.529C252.275 434.623 251.983 429.173 255.77 427.855L309.172 409.27C313.755 407.675 317.367 404.085 318.991 399.511L327.904 374.401C330.073 368.293 328.341 361.479 323.519 357.147L227.614 270.988C224.355 268.06 227.497 262.777 231.626 264.243L376.528 315.679C383.175 318.039 387.493 324.473 387.157 331.519Z" fill="#FF82AF"/>
<path d="M526.99 763.509L486.941 749.293L516.769 773.343L526.99 763.509Z" fill="#74213F"/>
<path d="M641.758 804.249L660.35 755.403L626.217 798.732L641.758 804.249Z" fill="#74213F"/>
<path d="M610.669 523.984C620.67 534.695 633.814 562.846 606.386 589.771" stroke="black" stroke-width="9" stroke-linecap="round"/>
<ellipse rx="29.1333" ry="29.1476" transform="matrix(0.939722 -0.34194 0.339591 0.940573 753.998 473.999)" fill="#FF82AF"/>
<ellipse rx="29.1333" ry="29.1476" transform="matrix(0.939722 -0.34194 0.339591 0.940573 803.992 455.808)" fill="#FF82AF"/>
<ellipse rx="19.9894" ry="19.9992" transform="matrix(0.939722 -0.34194 0.339591 0.940573 753.201 472.764)" fill="#FFE500"/>
<path d="M772.744 470.893C774.902 476.869 772.136 483.358 766.565 485.385C760.995 487.412 754.729 484.21 752.572 478.233C750.414 472.256 753.18 465.768 758.751 463.741C764.321 461.714 770.586 464.916 772.744 470.893Z" fill="black"/>
<path d="M822.508 447.545C826.259 457.934 820.89 469.416 810.515 473.191C800.141 476.966 788.69 471.604 784.939 461.215C781.188 450.826 786.558 439.344 796.932 435.569C807.307 431.794 818.757 437.156 822.508 447.545Z" fill="#FFE500"/>
<ellipse rx="11.5" ry="11.5057" transform="matrix(0.939722 -0.34194 0.339591 0.940573 811.881 457.606)" fill="black"/>
<g style="mix-blend-mode:overlay" opacity="0.6">
<circle r="13.5" transform="matrix(1 0 0 -1 1355.5 491.5)" fill="#87F1FF"/>
</g>
<g style="mix-blend-mode:overlay" opacity="0.6">
<circle r="8" transform="matrix(1 0 0 -1 1415 553)" fill="#87F1FF"/>
</g>
<g style="mix-blend-mode:overlay" opacity="0.6">
<circle r="8" transform="matrix(1 0 0 -1 1489 667)" fill="#87F1FF"/>
</g>
<g style="mix-blend-mode:overlay" opacity="0.6">
<circle r="13.5" transform="matrix(1 0 0 -1 912.5 401.5)" fill="#87F1FF"/>
</g>
<g style="mix-blend-mode:overlay" opacity="0.6">
<circle r="10" transform="matrix(1 0 0 -1 896 626)" fill="#87F1FF"/>
</g>
<g style="mix-blend-mode:overlay" opacity="0.6">
<circle r="10" transform="matrix(1 0 0 -1 291 762)" fill="#87F1FF"/>
</g>
<g style="mix-blend-mode:overlay" opacity="0.6">
<circle r="20.5" transform="matrix(1 0 0 -1 675.5 388.5)" fill="#87F1FF"/>
</g>
<g style="mix-blend-mode:overlay" opacity="0.6">
<circle r="20.5" transform="matrix(1 0 0 -1 161.5 314.5)" fill="#87F1FF"/>
</g>
<g style="mix-blend-mode:overlay" opacity="0.6">
<circle r="23" transform="matrix(1 0 0 -1 1458 438)" fill="#87F1FF"/>
</g>
</g>
<defs>
<filter id="filter0_f_44_4" x="678.5" y="71.5004" width="956.686" height="956.686" filterUnits="userSpaceOnUse" color-interpolation-filters="sRGB">
<feFlood flood-opacity="0" result="BackgroundImageFix"/>
<feBlend mode="normal" in="SourceGraphic" in2="BackgroundImageFix" result="shape"/>
<feGaussianBlur stdDeviation="57" result="effect1_foregroundBlur_44_4"/>
</filter>
<filter id="filter1_f_44_4" x="889.312" y="241.418" width="519.563" height="519.563" filterUnits="userSpaceOnUse" color-interpolation-filters="sRGB">
<feFlood flood-opacity="0" result="BackgroundImageFix"/>
<feBlend mode="normal" in="SourceGraphic" in2="BackgroundImageFix" result="shape"/>
<feGaussianBlur stdDeviation="57" result="effect1_foregroundBlur_44_4"/>
</filter>
<filter id="filter2_d_44_4" x="1102.49" y="465.173" width="88.3955" height="88.3956" filterUnits="userSpaceOnUse" color-interpolation-filters="sRGB">
<feFlood flood-opacity="0" result="BackgroundImageFix"/>
<feColorMatrix in="SourceAlpha" type="matrix" values="0 0 0 0 0 0 0 0 0 0 0 0 0 0 0 0 0 0 127 0" result="hardAlpha"/>
<feMorphology radius="10" operator="dilate" in="SourceAlpha" result="effect1_dropShadow_44_4"/>
<feOffset/>
<feGaussianBlur stdDeviation="10"/>
<feComposite in2="hardAlpha" operator="out"/>
<feColorMatrix type="matrix" values="0 0 0 0 1 0 0 0 0 0.9 0 0 0 0 0 0 0 0 1 0"/>
<feBlend mode="lighten" in2="BackgroundImageFix" result="effect1_dropShadow_44_4"/>
<feBlend mode="normal" in="SourceGraphic" in2="effect1_dropShadow_44_4" result="shape"/>
</filter>
<linearGradient id="paint0_linear_44_4" x1="880.5" y1="0" x2="880.5" y2="1175" gradientUnits="userSpaceOnUse">
<stop stop-color="#006CBB"/>
<stop offset="0.500448" stop-color="#00507C"/>
<stop offset="0.81694" stop-color="#001324"/>
</linearGradient>
<clipPath id="clip0_44_4">
<rect width="1761" height="1175" fill="white"/>
</clipPath>
</defs>
</svg>
