<svg width="606" height="479" viewBox="0 0 606 479" fill="none" xmlns="http://www.w3.org/2000/svg">
  <path
    d="M29.2565 303.864C29.2565 333.753 22.8561 357.983 14.9608 357.983C7.06546 357.983 0.665039 333.753 0.665039 303.864C0.665039 273.974 7.06546 249.744 14.9608 249.744C22.8561 249.744 29.2565 273.974 29.2565 303.864Z"
    fill="white"
  />
  <path
    d="M140.528 162.199L150.088 187.141C159.773 212.408 141.118 239.536 114.059 239.536H76.5896C59.9442 239.536 45.175 228.862 39.9525 213.057L31.711 188.115C23.4611 163.149 42.0536 137.424 68.3481 137.424H104.499C120.48 137.424 134.808 147.276 140.528 162.199Z"
    fill="#FFB800"
  />
  <path
    fill-rule="evenodd"
    clip-rule="evenodd"
    d="M150.833 189.264C158.721 213.903 140.36 239.535 114.057 239.535H99.7764L150.833 189.264Z"
    fill="#C56A00"
  />
  <path
    d="M30.309 395.014L20.7488 419.956C11.0638 445.223 29.7185 472.352 56.7782 472.352H94.2473C110.893 472.352 125.662 461.677 130.884 445.872L139.126 420.931C147.376 395.964 128.783 370.239 102.489 370.239H66.3384C50.3567 370.239 36.0291 380.091 30.309 395.014Z"
    fill="#FFB800"
  />
  <path
    fill-rule="evenodd"
    clip-rule="evenodd"
    d="M138.58 420.51C146.468 395.87 128.107 370.238 101.804 370.238H87.5234L138.58 420.51Z"
    fill="#C56A00"
  />
  <path
    fill-rule="evenodd"
    clip-rule="evenodd"
    d="M327.396 40.4176C306.503 29.3897 280.904 29.3033 263.627 32.8554L260.519 17.7374C280.002 13.7316 309.543 13.5421 334.601 26.7681C360.398 40.3846 380.071 67.5081 380.071 114.96H364.637C364.637 72.542 347.549 51.0549 327.396 40.4176Z"
    fill="#FFE500"
  />
  <path
    d="M605.171 311.774V285.794C605.171 208.073 542.166 145.068 464.445 145.068L455.388 126.939C437.964 92.0641 402.327 70.0312 363.341 70.0312H335.37C306.957 70.0312 283.923 93.065 283.923 121.479V145.068C224.35 145.068 169.082 176.114 138.089 226.991L126.388 246.198C101.853 286.473 101.853 337.075 126.388 377.35L140.403 400.356C169.959 448.874 222.664 478.481 279.476 478.481H438.464C530.534 478.481 605.171 403.844 605.171 311.774Z"
    fill="#FFE600"
  />
  <path
    fill-rule="evenodd"
    clip-rule="evenodd"
    d="M605.172 286.618V312.599C605.172 356.936 587.863 397.231 559.634 427.095C535.998 396.006 521.439 353.547 521.439 306.735C521.439 258.921 536.628 215.649 561.164 184.396C588.265 210.046 605.172 246.358 605.172 286.618Z"
    fill="#FFB800"
  />
  <g style="mix-blend-mode: multiply" opacity="0.16">
    <path
      fill-rule="evenodd"
      clip-rule="evenodd"
      d="M601.273 347.776H113.233C116.286 358.021 120.671 367.965 126.388 377.35L140.402 400.355C169.959 448.873 222.664 478.48 279.476 478.48H438.464C518.172 478.48 584.815 422.539 601.273 347.776Z"
      fill="#FF8A00"
    />
  </g>
  <path
    d="M368.27 259.958C368.27 292.667 394.786 319.183 427.495 319.183C460.205 319.183 486.721 292.667 486.721 259.958C486.721 227.248 460.205 200.732 427.495 200.732C394.786 200.732 368.27 227.248 368.27 259.958Z"
    fill="white"
  />
  <path
    fill-rule="evenodd"
    clip-rule="evenodd"
    d="M427.495 298.604C406.152 298.604 388.849 281.301 388.849 259.958C388.849 238.614 406.152 221.311 427.495 221.311C448.839 221.311 466.142 238.614 466.142 259.958C466.142 281.301 448.839 298.604 427.495 298.604ZM427.495 319.183C394.786 319.183 368.27 292.667 368.27 259.958C368.27 227.248 394.786 200.732 427.495 200.732C460.205 200.732 486.721 227.248 486.721 259.958C486.721 292.667 460.205 319.183 427.495 319.183Z"
    fill="#974800"
  />
  <path
    d="M206.932 259.958C206.932 292.667 233.448 319.183 266.158 319.183C298.867 319.183 325.383 292.667 325.383 259.958C325.383 227.248 298.867 200.732 266.158 200.732C233.448 200.732 206.932 227.248 206.932 259.958Z"
    fill="white"
  />
  <path
    fill-rule="evenodd"
    clip-rule="evenodd"
    d="M266.158 298.604C244.814 298.604 227.511 281.301 227.511 259.958C227.511 238.614 244.814 221.311 266.158 221.311C287.501 221.311 304.804 238.614 304.804 259.958C304.804 281.301 287.501 298.604 266.158 298.604ZM266.158 319.183C233.448 319.183 206.932 292.667 206.932 259.958C206.932 227.248 233.448 200.732 266.158 200.732C298.867 200.732 325.383 227.248 325.383 259.958C325.383 292.667 298.867 319.183 266.158 319.183Z"
    fill="#974800"
  />
  <path
    d="M272.284 23.0565C272.284 35.4635 262.226 45.5213 249.819 45.5213C237.412 45.5213 227.354 35.4635 227.354 23.0565C227.354 10.6496 237.412 0.591797 249.819 0.591797C262.226 0.591797 272.284 10.6496 272.284 23.0565Z"
    fill="white"
  />
  <path
    d="M49.6787 304.89C49.6787 295.867 56.9935 288.552 66.0167 288.552H133.411C142.434 288.552 149.749 295.867 149.749 304.89V304.89C149.749 313.913 142.434 321.228 133.411 321.228H66.0167C56.9935 321.228 49.6787 313.913 49.6787 304.89V304.89Z"
    fill="#FFB800"
  />
  <path
    d="M324.361 144.567C368.95 144.227 464.255 144.567 464.255 144.567L456.086 128.229L324.361 144.567Z"
    fill="#FFD400"
  />
</svg>
